<?xml version="1.0" standalone="no"?><!DOCTYPE svg PUBLIC "-//W3C//DTD SVG 1.1//EN" "http://www.w3.org/Graphics/SVG/1.1/DTD/svg11.dtd"><svg t="1507654648069" class="icon" style="" viewBox="0 0 1024 1024" version="1.1" xmlns="http://www.w3.org/2000/svg" p-id="1930" xmlns:xlink="http://www.w3.org/1999/xlink" width="32" height="32"><defs><style type="text/css"></style></defs><path d="M512.511489 21.482517C241.348075 21.482517 21.482517 241.343255 21.482517 512.511489 21.482517 783.684341 241.338636 1003.54046 512.511489 1003.54046 539.065295 1003.54046 560.591409 982.014346 560.591409 955.460539 560.591409 928.906733 539.065295 907.380619 512.511489 907.380619 294.446249 907.380619 117.642358 730.576728 117.642358 512.511489 117.642358 294.45134 294.455216 117.642358 512.511489 117.642358 730.576728 117.642358 907.380619 294.446249 907.380619 512.511489 907.380619 539.065295 928.906733 560.591409 955.460539 560.591409 982.014346 560.591409 1003.54046 539.065295 1003.54046 512.511489 1003.54046 241.338636 783.684341 21.482517 512.511489 21.482517Z" p-id="1931"></path></svg>